<svg xmlns="http://www.w3.org/2000/svg" viewBox="0 0 1254 1254">
  <rect width="1254" height="1254" fill="#0f1117"/>

  <!-- Stroke 1: drop center -->
  <path fill="#fa5952" d="M612.2,119.1 C624.5,121.7 630.9,127 641.5,143 C659.4,170.1 677.1,209.6 686.4,243.5 C690.7,259.1 694,277.9 694,286.4 C694,303.1 683.6,315.9 667,319.6 C655.9,322.1 645.1,319.4 636.5,311.8 C629.7,305.9 627.2,300.8 619.1,276.3 C609.2,246.3 597.4,219.6 578,183.5 C570.4,169.5 567.7,160.2 568.2,150.5 C568.5,144.1 569.2,141.4 571.5,137.2 C576.3,128.3 584.8,122.1 595.5,119.4 C602,117.8 605.7,117.7 612.2,119.1"/>

  <!-- Stroke 2: drop right -->
  <path fill="#fa5952" d="M917.7,125 C925.9,129.1 930.5,133.7 934.4,141.9 C937.2,147.8 937.5,149.4 937.4,157.5 C937.3,188.6 906,247.1 867.6,288 C855.5,301 838.6,316.5 831.7,321 C823.6,326.3 813.4,329.5 807.2,328.6 C800.7,327.7 792.6,323.6 789,319.2 C785.1,314.5 782.6,306.2 783.4,300.6 C784.5,293.7 788.6,286.1 794.8,280.1 C815,260.2 836.5,226 854.5,185 C860.1,172.1 862.6,165.2 868.5,144.9 C871.6,134.5 880.7,125.2 890.7,122.4 C898.7,120.1 910,121.2 917.7,125"/>

  <!-- Stroke 3: drop left -->
  <path fill="#fa5952" d="M394.2,174 C402.7,176.6 410.5,181.8 422,192.6 C445.9,215 466.5,240.2 485.9,271 C501.7,296 508.9,313.2 509,325.6 C509.1,348.7 486.6,363.1 465.4,353.5 C458.6,350.5 452.5,344.3 441,328.5 C423.2,304.1 410.2,289.6 372.1,251 C362.6,241.4 352.8,230.9 350.4,227.7 C334.3,206.2 342.1,181.5 367.5,173.4 C373.8,171.4 386.8,171.7 394.2,174"/>

  <!-- Stroke 4: roof -->
  <path fill="#fdb123" d="M967.7,342 C1006.8,345.2 1032.8,355.1 1045.2,371.5 C1055.8,385.5 1056.5,402.5 1047.5,426 C1038.3,450.1 1025.5,468.6 1003.3,490.1 C985.2,507.6 974.6,514 963.7,514 C946.8,514 935.2,501 936.2,483.4 C937,471.4 941.1,464.2 961.5,440 C973.3,426 981,414.6 981,411.4 C981,409.4 980.2,408.8 975.8,407.6 C965,404.6 950.5,403.7 918.5,404.3 C888.5,404.9 879.7,405.5 840,410 C791.8,415.4 743.7,423.4 554,457.5 C483.5,470.2 439.8,477.6 361.5,490.3 L347.5,492.6 L340.5,512.5 C330.4,540.8 316.3,570.6 304.1,589 C291.5,608.1 275.5,614.6 260.1,606.9 C249.1,601.4 243.5,591.1 243.6,576.5 C243.6,568.8 243.9,567.7 250.4,553 C277.4,491.2 286.1,460.5 289,416.5 C289.5,407.7 290.4,399.1 290.9,397.5 C293.6,388.1 299.7,380.7 308.2,376.7 C315.3,373.4 321.2,372.7 328.1,374.3 C338.6,376.8 345.8,382.6 350.7,392.5 C353,397 356,409.3 356,413.9 C356,416.5 356.4,417 358.5,417 C364.7,417 476.3,399.2 594,379.5 C615.2,376 643.1,371.5 656,369.5 C668.9,367.6 683.8,365.3 689,364.5 C759.1,353.8 833.1,345.4 886.5,342.1 C906.1,340.9 953.2,340.9 967.7,342"/>

  <!-- Stroke 5: ko (child) -->
  <path fill="#2e8dfb" d="M785,477.1 C794.8,478.6 802.1,482.4 808.3,488.9 C816.7,497.7 818.5,502.4 818.5,515 C818.5,524.6 818.2,526.1 815.2,532.9 C805.8,554.4 771.3,591.2 727.2,626.8 C714.7,637 685.6,658.8 679.5,662.7 C677,664.2 675,666.2 675,667.1 C675,668 676.8,674.1 678.9,680.6 C682.2,690.8 687.2,708.1 689.8,718.5 C690.4,720.9 691.1,721.5 693,721.3 C694.4,721.1 709.9,719.2 727.5,717.1 C821.4,705.5 897.7,700.7 954.6,702.8 C1005.4,704.8 1034.5,709.8 1054.3,720.3 C1065.2,726 1071.5,736.4 1071.5,748.5 C1071.4,757.5 1068.9,763.2 1061.8,770.4 C1055.3,776.8 1047.8,780 1037,780.7 C1030.5,781.2 1027.3,780.7 1015,777.6 C982.3,769.5 960.1,767.1 911,766.3 C853.8,765.4 797.6,768.8 723.8,777.7 L701,780.4 L701,782.9 C701,784.4 701.5,788.4 702,792 C705.1,813.8 708.3,867.5 707.5,886.5 C705.8,926.3 704.6,940 700.4,965 C687.5,1041.2 656.6,1101.6 621.6,1119 C607.9,1125.7 596.4,1127.3 582.2,1124.4 C562.7,1120.4 541.7,1105.9 521.1,1082.2 C500.8,1058.8 491,1040.2 492.3,1027.4 C493.8,1012.8 504.1,1002.6 517.5,1002.7 C529,1002.7 533.7,1006.4 548.5,1026.6 C558.3,1040 570.9,1052.8 577.3,1055.9 C583.8,1059.1 591.2,1058.5 597,1054.5 C612.1,1044 629.4,1000.2 636.9,953 C643.6,911.5 645.3,849.2 641,806.5 C639.6,792.6 639,789 637.8,789 C636.5,789 621.6,791.3 535.5,805 C458.8,817.2 397.3,826.2 363.5,830.2 C338.2,833.2 292.7,833.5 278.3,830.7 C254.2,826.1 233,817 223,807 C214.9,798.9 212.5,793.5 212.5,783.5 C212.5,774 215.1,768.1 222.2,761.3 C229.3,754.5 234.2,752.5 243.5,752.6 C250.4,752.6 252.7,753.1 260.2,756.3 C294.6,770.9 340.3,769.4 495.8,748.4 C545.3,741.7 629.9,729.4 630.6,728.8 C630.8,728.5 629.4,723.2 627.4,716.9 C624,706.1 616.3,689.2 606.8,671.5 C602.9,664.2 602.5,662.9 602.5,656.5 C602.5,650.6 603,648.6 605.5,644.1 C609,637.8 615.2,632.8 622.5,630.4 C632.4,627.2 657.1,608.7 684.3,584.3 C699,571.1 718.6,550.7 717.2,550.2 C716.6,550 704.5,552.3 690.3,555.4 C637.1,566.7 567.4,579.9 539,584.1 C520,586.9 494.6,587.6 485.5,585.7 C469.6,582.3 461,576.9 455.6,567.1 C446.4,550.2 456.8,528.2 476.8,522.4 C482,520.9 483.2,520.9 493.8,522.5 C506.4,524.5 521,524.2 539.9,521.5 C563.8,518.1 644.5,502.3 698.5,490.5 C745.8,480.2 752.8,478.7 760.5,477.5 C770.8,475.9 776.9,475.8 785,477.1"/>
</svg>
